<svg width="18" height="16" viewBox="0 0 18 16" fill="none" xmlns="http://www.w3.org/2000/svg">
<path d="M7.94543 0.316031L0.317817 7.26868C0.202247 7.37402 0.120192 7.48814 0.0716531 7.61104C0.0238842 7.73394 0 7.86562 0 8.00608C0 8.14653 0.0238842 8.27821 0.0716531 8.40111C0.120192 8.52401 0.202247 8.63814 0.317817 8.74348L7.94543 15.6961C8.1573 15.8893 8.42196 15.9904 8.73939 15.9995C9.05759 16.0079 9.33226 15.9068 9.5634 15.6961C9.79454 15.503 9.91512 15.2618 9.92514 14.9724C9.93438 14.6824 9.82343 14.432 9.59229 14.2213L3.92937 9.05951L16.8443 9.05951C17.1717 9.05951 17.4464 8.95873 17.6683 8.75717C17.8894 8.55492 18 8.30455 18 8.00608C18 7.70761 17.8894 7.45759 17.6683 7.25603C17.4464 7.05378 17.1717 6.95265 16.8443 6.95265L3.92937 6.95265L9.59229 1.79083C9.80417 1.5977 9.91512 1.3519 9.92514 1.05343C9.93438 0.754959 9.82343 0.509159 9.59229 0.316031C9.38042 0.105344 9.11075 0 8.78331 0C8.45586 0 8.17656 0.105344 7.94543 0.316031Z" fill="#707070"/>
</svg>
